<?xml version="1.0" encoding="UTF-8" standalone="no"?>
<!DOCTYPE svg PUBLIC "-//W3C//DTD SVG 1.1//EN" "http://www.w3.org/Graphics/SVG/1.1/DTD/svg11.dtd">
<svg width="100%" height="100%" viewBox="0 0 295 295" version="1.1" xmlns="http://www.w3.org/2000/svg" xmlns:xlink="http://www.w3.org/1999/xlink" xml:space="preserve" xmlns:serif="http://www.serif.com/" style="fill-rule:evenodd;clip-rule:evenodd;stroke-linejoin:round;stroke-miterlimit:2;">
    <g transform="matrix(1,0,0,1,-1159.64,-3498.79)">
        <g transform="matrix(0.811946,0,0,0.811946,765.893,2903.75)">
            <g id="Logo-Centered" serif:id="Logo Centered" transform="matrix(2.27504e-17,-0.371542,0.371542,2.27504e-17,9.51952,1077.83)">
                <g transform="matrix(1.78143e-16,2.9093,-3.31485,2.02976e-16,12526.5,-1974.75)">
                    <path d="M1454.04,3528.17C1454.04,3511.95 1439.04,3498.79 1420.56,3498.79L1152.08,3498.79C1133.6,3498.79 1118.6,3511.95 1118.6,3528.17L1118.6,3763.8C1118.6,3780.02 1133.6,3793.18 1152.08,3793.18L1420.56,3793.18C1439.04,3793.18 1454.04,3780.02 1454.04,3763.8L1454.04,3528.17Z" style="fill:url(#_Linear1);"/>
                </g>
                <g transform="matrix(1.78143e-16,2.9093,-3.31485,2.02976e-16,12526.5,-1974.75)">
                    <path d="M1454.04,3528.17L1454.04,3763.8C1454.04,3780.02 1439.04,3793.18 1420.56,3793.18L1152.08,3793.18C1133.6,3793.18 1118.6,3780.02 1118.6,3763.8L1118.6,3528.17C1118.6,3511.95 1133.6,3498.79 1152.08,3498.79L1420.56,3498.79C1439.04,3498.79 1454.04,3511.95 1454.04,3528.17ZM1449.48,3528.17C1449.48,3514.16 1436.52,3502.79 1420.56,3502.79L1152.08,3502.79C1136.12,3502.79 1123.16,3514.16 1123.16,3528.17L1123.16,3763.8C1123.16,3777.81 1136.12,3789.18 1152.08,3789.18L1420.56,3789.18C1436.52,3789.18 1449.48,3777.81 1449.48,3763.8L1449.48,3528.17Z" style="fill:url(#_Linear2);"/>
                </g>
                <g id="Shadow" transform="matrix(3.28572e-16,5.36599,-5.36599,3.28572e-16,19983.6,-5856.87)">
                    <path d="M1452.06,3609.27L1452.09,3609.27C1456.42,3609.27 1459.94,3612.78 1459.94,3617.12L1459.94,3674.91C1459.94,3679.24 1456.42,3682.75 1452.09,3682.75L1452.06,3682.75C1447.73,3682.75 1444.22,3679.24 1444.22,3674.91L1444.22,3617.12C1444.22,3612.78 1447.73,3609.27 1452.06,3609.27ZM1419.91,3593.55L1419.94,3593.55C1424.27,3593.55 1427.79,3597.07 1427.79,3601.4L1427.79,3659.19C1427.79,3663.52 1424.27,3667.03 1419.94,3667.03L1419.91,3667.03C1415.59,3667.03 1412.07,3663.52 1412.07,3659.19L1412.07,3601.4C1412.07,3597.07 1415.59,3593.55 1419.91,3593.55ZM1387.77,3609.27L1387.8,3609.27C1392.12,3609.27 1395.64,3612.78 1395.64,3617.12L1395.64,3674.91C1395.64,3679.24 1392.12,3682.75 1387.8,3682.75L1387.77,3682.75C1383.44,3682.75 1379.92,3679.24 1379.92,3674.91L1379.92,3617.12C1379.92,3612.78 1383.44,3609.27 1387.77,3609.27Z" style="fill:url(#_Linear3);"/>
                </g>
                <g id="Pillars" transform="matrix(3.28388e-16,5.36298,-5.36298,3.28388e-16,19977.7,-5847.61)">
                    <path d="M1452.06,3609.27L1452.09,3609.27C1456.42,3609.27 1459.94,3612.78 1459.94,3617.12L1459.94,3674.91C1459.94,3679.24 1456.42,3682.75 1452.09,3682.75L1452.06,3682.75C1447.73,3682.75 1444.22,3679.24 1444.22,3674.91L1444.22,3617.12C1444.22,3612.78 1447.73,3609.27 1452.06,3609.27ZM1419.91,3593.55L1419.94,3593.55C1424.27,3593.55 1427.79,3597.07 1427.79,3601.4L1427.79,3659.19C1427.79,3663.52 1424.27,3667.03 1419.94,3667.03L1419.91,3667.03C1415.59,3667.03 1412.07,3663.52 1412.07,3659.19L1412.07,3601.4C1412.07,3597.07 1415.59,3593.55 1419.91,3593.55ZM1387.77,3609.27L1387.8,3609.27C1392.12,3609.27 1395.64,3612.78 1395.64,3617.12L1395.64,3674.91C1395.64,3679.24 1392.12,3682.75 1387.8,3682.75L1387.77,3682.75C1383.44,3682.75 1379.92,3679.24 1379.92,3674.91L1379.92,3617.12C1379.92,3612.78 1383.44,3609.27 1387.77,3609.27Z" style="fill:rgb(231,238,242);"/>
                    <path d="M1452.06,3609.27L1452.09,3609.27C1456.42,3609.27 1459.94,3612.78 1459.94,3617.12L1459.94,3674.91C1459.94,3679.24 1456.42,3682.75 1452.09,3682.75L1452.06,3682.75C1447.73,3682.75 1444.22,3679.24 1444.22,3674.91L1444.22,3617.12C1444.22,3612.78 1447.73,3609.27 1452.06,3609.27ZM1452.06,3682.45C1452.07,3682.44 1452.08,3682.44 1452.09,3682.44C1452.09,3682.44 1452.09,3682.44 1452.09,3682.44C1456.25,3682.44 1459.63,3679.07 1459.63,3674.91L1459.63,3617.12C1459.63,3612.96 1456.25,3609.58 1452.09,3609.58L1452.06,3609.58C1447.9,3609.58 1444.53,3612.96 1444.53,3617.12L1444.53,3674.91C1444.53,3679.07 1447.9,3682.44 1452.06,3682.44L1452.06,3682.45ZM1419.91,3593.55L1419.94,3593.55C1424.27,3593.55 1427.79,3597.07 1427.79,3601.4L1427.79,3659.19C1427.79,3663.52 1424.27,3667.03 1419.94,3667.03L1419.91,3667.03C1415.59,3667.03 1412.07,3663.52 1412.07,3659.19L1412.07,3601.4C1412.07,3597.07 1415.59,3593.55 1419.91,3593.55ZM1419.91,3666.72C1419.92,3666.72 1419.92,3666.72 1419.93,3666.72C1419.93,3666.72 1419.94,3666.72 1419.94,3666.72C1424.1,3666.72 1427.48,3663.35 1427.48,3659.19L1427.48,3601.4C1427.48,3597.24 1424.1,3593.86 1419.94,3593.86L1419.91,3593.86C1415.76,3593.86 1412.38,3597.24 1412.38,3601.4L1412.38,3659.19C1412.38,3663.35 1415.76,3666.72 1419.91,3666.72ZM1387.77,3609.27L1387.8,3609.27C1392.12,3609.27 1395.64,3612.78 1395.64,3617.12L1395.64,3674.91C1395.64,3679.24 1392.12,3682.75 1387.8,3682.75L1387.77,3682.75C1383.44,3682.75 1379.92,3679.24 1379.92,3674.91L1379.92,3617.12C1379.92,3612.78 1383.44,3609.27 1387.77,3609.27ZM1387.77,3682.45C1387.77,3682.44 1387.78,3682.44 1387.79,3682.44C1387.79,3682.44 1387.79,3682.44 1387.8,3682.44C1391.95,3682.44 1395.33,3679.07 1395.33,3674.91L1395.33,3617.12C1395.33,3612.96 1391.95,3609.58 1387.8,3609.58L1387.77,3609.58C1383.61,3609.58 1380.23,3612.96 1380.23,3617.12L1380.23,3674.91C1380.23,3679.07 1383.61,3682.44 1387.77,3682.44L1387.77,3682.45Z" style="fill:url(#_Linear4);"/>
                </g>
            </g>
        </g>
    </g>
    <defs>
        <linearGradient id="_Linear1" x1="0" y1="0" x2="1" y2="0" gradientUnits="userSpaceOnUse" gradientTransform="matrix(335.437,0,0,294.398,1118.6,3645.99)"><stop offset="0" style="stop-color:rgb(15,31,255);stop-opacity:1"/><stop offset="1" style="stop-color:rgb(15,31,255);stop-opacity:1"/></linearGradient>
        <linearGradient id="_Linear2" x1="0" y1="0" x2="1" y2="0" gradientUnits="userSpaceOnUse" gradientTransform="matrix(1,0,0,1,0,0.5)"><stop offset="0" style="stop-color:black;stop-opacity:0.22"/><stop offset="1" style="stop-color:white;stop-opacity:0.05"/></linearGradient>
        <linearGradient id="_Linear3" x1="0" y1="0" x2="1" y2="0" gradientUnits="userSpaceOnUse" gradientTransform="matrix(80.0165,0,0,89.201,1379.92,3638.15)"><stop offset="0" style="stop-color:rgb(15,31,255);stop-opacity:0.51"/><stop offset="1" style="stop-color:rgb(15,31,211);stop-opacity:0.8"/></linearGradient>
        <linearGradient id="_Linear4" x1="0" y1="0" x2="1" y2="0" gradientUnits="userSpaceOnUse" gradientTransform="matrix(80.0165,0,0,89.201,1379.92,3638.15)"><stop offset="0" style="stop-color:rgb(206,206,206);stop-opacity:1"/><stop offset="1" style="stop-color:white;stop-opacity:1"/></linearGradient>
    </defs>
</svg>
