<?xml version="1.0" encoding="UTF-8" standalone="no"?>
<!DOCTYPE svg PUBLIC "-//W3C//DTD SVG 1.1//EN" "http://www.w3.org/Graphics/SVG/1.1/DTD/svg11.dtd">
<svg width="100%" height="100%" viewBox="0 0 1521 295" version="1.1" xmlns="http://www.w3.org/2000/svg" xmlns:xlink="http://www.w3.org/1999/xlink" xml:space="preserve" xmlns:serif="http://www.serif.com/" style="fill-rule:evenodd;clip-rule:evenodd;stroke-linejoin:round;stroke-miterlimit:2;">
    <g transform="matrix(1,0,0,1,-1159.64,-3498.79)">
        <g transform="matrix(1,0,0,1,-3890,2565.99)">
            <g transform="matrix(0.811946,0,0,0.811946,4655.89,337.768)">
                <g id="_2020-comp" serif:id="2020-comp">
                    <g>
                        <g transform="matrix(1.72237,0,0,1.72237,-814.413,-5794.54)">
                            <path d="M1112.59,3842.08L1112.59,3945.58L1093.11,3945.58L1093.11,3934.96C1090.25,3939.51 1086.99,3942.81 1083.34,3944.87C1079.68,3946.93 1075.13,3947.97 1069.69,3947.97C1060.74,3947.97 1053.21,3944.34 1047.09,3937.1C1040.97,3929.86 1037.91,3920.57 1037.91,3909.22C1037.91,3896.14 1040.92,3885.86 1046.95,3878.36C1052.97,3870.86 1061.02,3867.11 1071.1,3867.11C1075.74,3867.11 1079.87,3868.13 1083.48,3870.16C1087.09,3872.2 1090.02,3875.03 1092.27,3878.64L1092.27,3842.08L1112.59,3842.08ZM1058.59,3907.75C1058.59,3914.83 1059.99,3920.47 1062.8,3924.69C1065.57,3928.96 1069.79,3931.09 1075.46,3931.09C1081.13,3931.09 1085.44,3928.98 1088.4,3924.76C1091.35,3920.54 1092.83,3915.08 1092.83,3908.38C1092.83,3899.01 1090.46,3892.3 1085.73,3888.27C1082.82,3885.83 1079.44,3884.61 1075.6,3884.61C1069.74,3884.61 1065.44,3886.83 1062.7,3891.26C1059.96,3895.69 1058.59,3901.18 1058.59,3907.75Z" style="fill:rgb(58,58,58);fill-rule:nonzero;"/>
                            <path d="M1144.2,3868.93L1144.2,3945.58L1123.88,3945.58L1123.88,3868.93L1144.2,3868.93ZM1144.2,3841.3L1144.2,3859.79L1123.88,3859.79L1123.88,3841.3L1144.2,3841.3Z" style="fill:rgb(58,58,58);fill-rule:nonzero;"/>
                            <path d="M1178.06,3959.01C1180.22,3960.83 1183.85,3961.75 1188.96,3961.75C1196.18,3961.75 1201.01,3959.33 1203.44,3954.51C1205.04,3951.41 1205.83,3946.21 1205.83,3938.89L1205.83,3933.97C1203.91,3937.26 1201.85,3939.72 1199.65,3941.36C1195.66,3944.4 1190.48,3945.93 1184.11,3945.93C1174.26,3945.93 1166.4,3942.47 1160.52,3935.56C1154.63,3928.64 1151.69,3919.28 1151.69,3907.47C1151.69,3896.08 1154.53,3886.5 1160.2,3878.74C1165.87,3870.99 1173.91,3867.11 1184.32,3867.11C1188.16,3867.11 1191.51,3867.69 1194.37,3868.86C1199.25,3870.88 1203.18,3874.58 1206.18,3879.97L1206.18,3868.93L1225.66,3868.93L1225.66,3941.64C1225.66,3951.53 1224,3958.98 1220.67,3964C1214.95,3972.62 1203.98,3976.93 1187.76,3976.93C1177.97,3976.93 1169.97,3975.01 1163.79,3971.17C1157.6,3967.33 1154.18,3961.58 1153.52,3953.94L1175.32,3953.94C1175.88,3956.29 1176.8,3957.97 1178.06,3959.01ZM1174.68,3919.42C1177.4,3925.89 1182.28,3929.12 1189.31,3929.12C1194,3929.12 1197.96,3927.35 1201.19,3923.81C1204.43,3920.27 1206.05,3914.64 1206.05,3906.9C1206.05,3899.64 1204.51,3894.11 1201.44,3890.31C1198.37,3886.51 1194.26,3884.61 1189.1,3884.61C1182.07,3884.61 1177.22,3887.92 1174.55,3894.53C1173.14,3898.04 1172.43,3902.38 1172.43,3907.54C1172.43,3911.99 1173.18,3915.95 1174.68,3919.42Z" style="fill:rgb(58,58,58);fill-rule:nonzero;"/>
                            <path d="M1257.77,3868.93L1257.77,3945.58L1237.45,3945.58L1237.45,3868.93L1257.77,3868.93ZM1257.77,3841.3L1257.77,3859.79L1237.45,3859.79L1237.45,3841.3L1257.77,3841.3Z" style="fill:rgb(58,58,58);fill-rule:nonzero;"/>
                            <path d="M1305.06,3931.3L1305.06,3946.28L1295.57,3946.63C1286.1,3946.96 1279.63,3945.32 1276.16,3941.71C1273.91,3939.41 1272.79,3935.87 1272.79,3931.09L1272.79,3883.91L1262.1,3883.91L1262.1,3869.64L1272.79,3869.64L1272.79,3848.26L1292.61,3848.26L1292.61,3869.64L1305.06,3869.64L1305.06,3883.91L1292.61,3883.91L1292.61,3924.41C1292.61,3927.55 1293.01,3929.51 1293.81,3930.28C1294.61,3931.06 1297.04,3931.44 1301.12,3931.44C1301.73,3931.44 1302.38,3931.43 1303.06,3931.41C1303.73,3931.38 1304.4,3931.35 1305.06,3931.3Z" style="fill:rgb(58,58,58);fill-rule:nonzero;"/>
                            <path d="M1313.61,3877.23C1318.9,3870.48 1328,3867.11 1340.89,3867.11C1349.28,3867.11 1356.73,3868.77 1363.25,3872.1C1369.77,3875.43 1373.02,3881.71 1373.02,3890.94L1373.02,3926.1C1373.02,3928.54 1373.07,3931.49 1373.16,3934.96C1373.3,3937.58 1373.7,3939.36 1374.36,3940.3C1375.02,3941.24 1376,3942.01 1377.31,3942.62L1377.31,3945.58L1355.52,3945.58C1354.9,3944.03 1354.48,3942.58 1354.25,3941.22C1354.02,3939.86 1353.83,3938.31 1353.69,3936.58C1350.92,3939.58 1347.73,3942.13 1344.12,3944.24C1339.81,3946.72 1334.94,3947.97 1329.5,3947.97C1322.56,3947.97 1316.83,3945.99 1312.31,3942.02C1307.78,3938.06 1305.52,3932.45 1305.52,3925.18C1305.52,3915.76 1309.15,3908.94 1316.42,3904.72C1320.4,3902.43 1326.27,3900.79 1334,3899.8L1340.82,3898.96C1344.52,3898.49 1347.17,3897.9 1348.77,3897.2C1351.62,3895.98 1353.05,3894.08 1353.05,3891.51C1353.05,3888.36 1351.96,3886.2 1349.78,3885C1347.61,3883.81 1344.4,3883.21 1340.19,3883.21C1335.45,3883.21 1332.1,3884.38 1330.13,3886.72C1328.73,3888.46 1327.79,3890.8 1327.32,3893.76L1307.98,3893.76C1308.4,3887.05 1310.28,3881.54 1313.61,3877.23ZM1328.52,3931.09C1330.39,3932.64 1332.69,3933.41 1335.4,3933.41C1339.72,3933.41 1343.69,3932.14 1347.32,3929.61C1350.96,3927.08 1352.84,3922.47 1352.98,3915.76L1352.98,3908.31C1351.72,3909.11 1350.44,3909.75 1349.15,3910.24C1347.86,3910.74 1346.09,3911.19 1343.84,3911.61L1339.34,3912.46C1335.12,3913.21 1332.1,3914.12 1330.27,3915.2C1327.18,3917.03 1325.63,3919.86 1325.63,3923.71C1325.63,3927.13 1326.59,3929.59 1328.52,3931.09Z" style="fill:rgb(58,58,58);fill-rule:nonzero;"/>
                            <rect x="1384.03" y="3841.93" width="20.039" height="103.641" style="fill:rgb(58,58,58);fill-rule:nonzero;"/>
                            <path d="M1482.72,3896.43L1462.19,3896.43C1461.82,3893.57 1460.86,3890.99 1459.31,3888.69C1457.06,3885.6 1453.57,3884.05 1448.83,3884.05C1442.08,3884.05 1437.47,3887.4 1434.98,3894.11C1433.67,3897.67 1433.01,3902.4 1433.01,3908.31C1433.01,3913.93 1433.67,3918.46 1434.98,3921.88C1437.37,3928.26 1441.87,3931.44 1448.48,3931.44C1453.17,3931.44 1456.5,3930.18 1458.47,3927.64C1460.43,3925.11 1461.63,3921.83 1462.05,3917.8L1482.51,3917.8C1482.05,3923.89 1479.84,3929.66 1475.9,3935.1C1469.62,3943.86 1460.32,3948.25 1447.99,3948.25C1435.66,3948.25 1426.59,3944.59 1420.78,3937.28C1414.97,3929.97 1412.06,3920.47 1412.06,3908.8C1412.06,3895.63 1415.27,3885.39 1421.69,3878.08C1428.12,3870.76 1436.97,3867.11 1448.27,3867.11C1457.88,3867.11 1465.74,3869.26 1471.86,3873.58C1477.98,3877.89 1481.6,3885.51 1482.72,3896.43Z" style="fill:rgb(58,58,58);fill-rule:nonzero;"/>
                            <path d="M1558.56,3900.58L1558.56,3945.58L1538.1,3945.58L1538.1,3898.96C1538.1,3894.83 1537.4,3891.51 1535.99,3888.97C1534.16,3885.41 1530.7,3883.63 1525.59,3883.63C1520.29,3883.63 1516.27,3885.4 1513.53,3888.94C1510.79,3892.48 1509.41,3897.53 1509.41,3904.09L1509.41,3945.58L1489.45,3945.58L1489.45,3842.29L1509.41,3842.29L1509.41,3878.92C1512.32,3874.47 1515.68,3871.36 1519.51,3869.6C1523.33,3867.84 1527.35,3866.97 1531.56,3866.97C1536.3,3866.97 1540.6,3867.79 1544.47,3869.43C1548.33,3871.07 1551.51,3873.58 1553.99,3876.95C1556.1,3879.81 1557.39,3882.75 1557.86,3885.77C1558.33,3888.8 1558.56,3893.73 1558.56,3900.58Z" style="fill:rgb(58,58,58);fill-rule:nonzero;"/>
                            <path d="M1619.22,3934.75C1619.03,3934.98 1618.56,3935.68 1617.81,3936.86C1617.06,3938.03 1616.17,3939.06 1615.14,3939.95C1612,3942.76 1608.96,3944.68 1606.03,3945.72C1603.1,3946.75 1599.67,3947.26 1595.73,3947.26C1584.39,3947.26 1576.75,3943.18 1572.81,3935.03C1570.61,3930.53 1569.5,3923.89 1569.5,3915.13L1569.5,3868.93L1590.04,3868.93L1590.04,3915.13C1590.04,3919.49 1590.55,3922.77 1591.58,3924.97C1593.41,3928.86 1597,3930.81 1602.34,3930.81C1609.18,3930.81 1613.87,3928.04 1616.4,3922.51C1617.72,3919.51 1618.37,3915.55 1618.37,3910.63L1618.37,3868.93L1638.69,3868.93L1638.69,3945.58L1619.22,3945.58L1619.22,3934.75Z" style="fill:rgb(58,58,58);fill-rule:nonzero;"/>
                            <path d="M1689.36,3887.43C1681.3,3887.43 1675.88,3890.05 1673.12,3895.3C1671.57,3898.26 1670.8,3902.8 1670.8,3908.94L1670.8,3945.58L1650.62,3945.58L1650.62,3868.93L1669.74,3868.93L1669.74,3882.29C1672.84,3877.18 1675.53,3873.69 1677.83,3871.82C1681.58,3868.68 1686.45,3867.11 1692.45,3867.11C1692.83,3867.11 1693.14,3867.12 1693.4,3867.14C1693.66,3867.16 1694.23,3867.2 1695.12,3867.25L1695.12,3887.78C1693.86,3887.64 1692.73,3887.54 1691.75,3887.5C1690.77,3887.45 1689.97,3887.43 1689.36,3887.43Z" style="fill:rgb(58,58,58);fill-rule:nonzero;"/>
                            <path d="M1765.97,3896.43L1745.44,3896.43C1745.07,3893.57 1744.1,3890.99 1742.56,3888.69C1740.31,3885.6 1736.82,3884.05 1732.08,3884.05C1725.33,3884.05 1720.71,3887.4 1718.23,3894.11C1716.92,3897.67 1716.26,3902.4 1716.26,3908.31C1716.26,3913.93 1716.92,3918.46 1718.23,3921.88C1720.62,3928.26 1725.12,3931.44 1731.73,3931.44C1736.42,3931.44 1739.75,3930.18 1741.71,3927.64C1743.68,3925.11 1744.88,3921.83 1745.3,3917.8L1765.76,3917.8C1765.29,3923.89 1763.09,3929.66 1759.15,3935.1C1752.87,3943.86 1743.57,3948.25 1731.24,3948.25C1718.91,3948.25 1709.84,3944.59 1704.03,3937.28C1698.21,3929.97 1695.31,3920.47 1695.31,3908.8C1695.31,3895.63 1698.52,3885.39 1704.94,3878.08C1711.36,3870.76 1720.22,3867.11 1731.52,3867.11C1741.13,3867.11 1748.99,3869.26 1755.11,3873.58C1761.23,3877.89 1764.85,3885.51 1765.97,3896.43Z" style="fill:rgb(58,58,58);fill-rule:nonzero;"/>
                            <path d="M1841.81,3900.58L1841.81,3945.58L1821.35,3945.58L1821.35,3898.96C1821.35,3894.83 1820.65,3891.51 1819.24,3888.97C1817.41,3885.41 1813.94,3883.63 1808.83,3883.63C1803.54,3883.63 1799.52,3885.4 1796.78,3888.94C1794.03,3892.48 1792.66,3897.53 1792.66,3904.09L1792.66,3945.58L1772.69,3945.58L1772.69,3842.29L1792.66,3842.29L1792.66,3878.92C1795.57,3874.47 1798.93,3871.36 1802.75,3869.6C1806.57,3867.84 1810.59,3866.97 1814.81,3866.97C1819.55,3866.97 1823.85,3867.79 1827.71,3869.43C1831.58,3871.07 1834.76,3873.58 1837.24,3876.95C1839.35,3879.81 1840.64,3882.75 1841.11,3885.77C1841.58,3888.8 1841.81,3893.73 1841.81,3900.58Z" style="fill:rgb(58,58,58);fill-rule:nonzero;"/>
                        </g>
                        <g id="Logo-Centered" serif:id="Logo Centered" transform="matrix(2.27504e-17,-0.371542,0.371542,2.27504e-17,9.51952,1077.83)">
                            <g transform="matrix(1.78143e-16,2.9093,-3.31485,2.02976e-16,12526.5,-1974.75)">
                                <path d="M1454.04,3528.17C1454.04,3511.95 1439.04,3498.79 1420.56,3498.79L1152.08,3498.79C1133.6,3498.79 1118.6,3511.95 1118.6,3528.17L1118.6,3763.8C1118.6,3780.02 1133.6,3793.18 1152.08,3793.18L1420.56,3793.18C1439.04,3793.18 1454.04,3780.02 1454.04,3763.8L1454.04,3528.17Z" style="fill:url(#_Linear1);"/>
                            </g>
                            <g transform="matrix(1.78143e-16,2.9093,-3.31485,2.02976e-16,12526.5,-1974.75)">
                                <path d="M1454.04,3528.17L1454.04,3763.8C1454.04,3780.02 1439.04,3793.18 1420.56,3793.18L1152.08,3793.18C1133.6,3793.18 1118.6,3780.02 1118.6,3763.8L1118.6,3528.17C1118.6,3511.95 1133.6,3498.79 1152.08,3498.79L1420.56,3498.79C1439.04,3498.79 1454.04,3511.95 1454.04,3528.17ZM1449.48,3528.17C1449.48,3514.16 1436.52,3502.79 1420.56,3502.79L1152.08,3502.79C1136.12,3502.79 1123.16,3514.16 1123.16,3528.17L1123.16,3763.8C1123.16,3777.81 1136.12,3789.18 1152.08,3789.18L1420.56,3789.18C1436.52,3789.18 1449.48,3777.81 1449.48,3763.8L1449.48,3528.17Z" style="fill:url(#_Linear2);"/>
                            </g>
                            <g id="Shadow" transform="matrix(3.28572e-16,5.36599,-5.36599,3.28572e-16,19983.6,-5856.87)">
                                <path d="M1452.06,3609.27L1452.09,3609.27C1456.42,3609.27 1459.94,3612.78 1459.94,3617.12L1459.94,3674.91C1459.94,3679.24 1456.42,3682.75 1452.09,3682.75L1452.06,3682.75C1447.73,3682.75 1444.22,3679.24 1444.22,3674.91L1444.22,3617.12C1444.22,3612.78 1447.73,3609.27 1452.06,3609.27ZM1419.91,3593.55L1419.94,3593.55C1424.27,3593.55 1427.79,3597.07 1427.79,3601.4L1427.79,3659.19C1427.79,3663.52 1424.27,3667.03 1419.94,3667.03L1419.91,3667.03C1415.59,3667.03 1412.07,3663.52 1412.07,3659.19L1412.07,3601.4C1412.07,3597.07 1415.59,3593.55 1419.91,3593.55ZM1387.77,3609.27L1387.8,3609.27C1392.12,3609.27 1395.64,3612.78 1395.64,3617.12L1395.64,3674.91C1395.64,3679.24 1392.12,3682.75 1387.8,3682.75L1387.77,3682.75C1383.44,3682.75 1379.92,3679.24 1379.92,3674.91L1379.92,3617.12C1379.92,3612.78 1383.44,3609.27 1387.77,3609.27Z" style="fill:url(#_Linear3);"/>
                            </g>
                            <g id="Pillars" transform="matrix(3.28388e-16,5.36298,-5.36298,3.28388e-16,19977.7,-5847.61)">
                                <path d="M1452.06,3609.27L1452.09,3609.27C1456.42,3609.27 1459.94,3612.78 1459.94,3617.12L1459.94,3674.91C1459.94,3679.24 1456.42,3682.75 1452.09,3682.75L1452.06,3682.75C1447.73,3682.75 1444.22,3679.24 1444.22,3674.91L1444.22,3617.12C1444.22,3612.78 1447.73,3609.27 1452.06,3609.27ZM1419.91,3593.55L1419.94,3593.55C1424.27,3593.55 1427.79,3597.07 1427.79,3601.4L1427.79,3659.19C1427.79,3663.52 1424.27,3667.03 1419.94,3667.03L1419.91,3667.03C1415.59,3667.03 1412.07,3663.52 1412.07,3659.19L1412.07,3601.4C1412.07,3597.07 1415.59,3593.55 1419.91,3593.55ZM1387.77,3609.27L1387.8,3609.27C1392.12,3609.27 1395.64,3612.78 1395.64,3617.12L1395.64,3674.91C1395.64,3679.24 1392.12,3682.75 1387.8,3682.75L1387.77,3682.75C1383.44,3682.75 1379.92,3679.24 1379.92,3674.91L1379.92,3617.12C1379.92,3612.78 1383.44,3609.27 1387.77,3609.27Z" style="fill:rgb(231,238,242);"/>
                                <path d="M1452.06,3609.27L1452.09,3609.27C1456.42,3609.27 1459.94,3612.78 1459.94,3617.12L1459.94,3674.91C1459.94,3679.24 1456.42,3682.75 1452.09,3682.75L1452.06,3682.75C1447.73,3682.75 1444.22,3679.24 1444.22,3674.91L1444.22,3617.12C1444.22,3612.78 1447.73,3609.27 1452.06,3609.27ZM1452.06,3682.45C1452.07,3682.44 1452.08,3682.44 1452.09,3682.44C1452.09,3682.44 1452.09,3682.44 1452.09,3682.44C1456.25,3682.44 1459.63,3679.07 1459.63,3674.91L1459.63,3617.12C1459.63,3612.96 1456.25,3609.58 1452.09,3609.58L1452.06,3609.58C1447.9,3609.58 1444.53,3612.96 1444.53,3617.12L1444.53,3674.91C1444.53,3679.07 1447.9,3682.44 1452.06,3682.44L1452.06,3682.45ZM1419.91,3593.55L1419.94,3593.55C1424.27,3593.55 1427.79,3597.07 1427.79,3601.4L1427.79,3659.19C1427.79,3663.52 1424.27,3667.03 1419.94,3667.03L1419.91,3667.03C1415.59,3667.03 1412.07,3663.52 1412.07,3659.19L1412.07,3601.4C1412.07,3597.07 1415.59,3593.55 1419.91,3593.55ZM1419.91,3666.72C1419.92,3666.72 1419.92,3666.72 1419.93,3666.72C1419.93,3666.72 1419.94,3666.72 1419.94,3666.72C1424.1,3666.72 1427.48,3663.35 1427.48,3659.19L1427.48,3601.4C1427.48,3597.24 1424.1,3593.86 1419.94,3593.86L1419.91,3593.86C1415.76,3593.86 1412.38,3597.24 1412.38,3601.4L1412.38,3659.19C1412.38,3663.35 1415.76,3666.72 1419.91,3666.72ZM1387.77,3609.27L1387.8,3609.27C1392.12,3609.27 1395.64,3612.78 1395.64,3617.12L1395.64,3674.91C1395.64,3679.24 1392.12,3682.75 1387.8,3682.75L1387.77,3682.75C1383.44,3682.75 1379.92,3679.24 1379.92,3674.91L1379.92,3617.12C1379.92,3612.78 1383.44,3609.27 1387.77,3609.27ZM1387.77,3682.45C1387.77,3682.44 1387.78,3682.44 1387.79,3682.44C1387.79,3682.44 1387.79,3682.44 1387.8,3682.44C1391.95,3682.44 1395.33,3679.07 1395.33,3674.91L1395.33,3617.12C1395.33,3612.96 1391.95,3609.58 1387.8,3609.58L1387.77,3609.58C1383.61,3609.58 1380.23,3612.96 1380.23,3617.12L1380.23,3674.91C1380.23,3679.07 1383.61,3682.44 1387.77,3682.44L1387.77,3682.45Z" style="fill:url(#_Linear4);"/>
                            </g>
                        </g>
                    </g>
                </g>
            </g>
        </g>
    </g>
    <defs>
        <linearGradient id="_Linear1" x1="0" y1="0" x2="1" y2="0" gradientUnits="userSpaceOnUse" gradientTransform="matrix(335.437,0,0,294.398,1118.6,3645.99)"><stop offset="0" style="stop-color:rgb(15,31,255);stop-opacity:1"/><stop offset="1" style="stop-color:rgb(15,31,255);stop-opacity:1"/></linearGradient>
        <linearGradient id="_Linear2" x1="0" y1="0" x2="1" y2="0" gradientUnits="userSpaceOnUse" gradientTransform="matrix(1,0,0,1,0,0.5)"><stop offset="0" style="stop-color:black;stop-opacity:0.22"/><stop offset="1" style="stop-color:white;stop-opacity:0.05"/></linearGradient>
        <linearGradient id="_Linear3" x1="0" y1="0" x2="1" y2="0" gradientUnits="userSpaceOnUse" gradientTransform="matrix(80.0165,0,0,89.201,1379.92,3638.15)"><stop offset="0" style="stop-color:rgb(15,31,255);stop-opacity:0.51"/><stop offset="1" style="stop-color:rgb(15,31,211);stop-opacity:0.8"/></linearGradient>
        <linearGradient id="_Linear4" x1="0" y1="0" x2="1" y2="0" gradientUnits="userSpaceOnUse" gradientTransform="matrix(80.0165,0,0,89.201,1379.92,3638.15)"><stop offset="0" style="stop-color:rgb(206,206,206);stop-opacity:1"/><stop offset="1" style="stop-color:white;stop-opacity:1"/></linearGradient>
    </defs>
</svg>
